<?xml version="1.0" encoding="utf-8"?>
<!-- Generator: Adobe Illustrator 28.0.0, SVG Export Plug-In . SVG Version: 6.00 Build 0)  -->
<svg version="1.1" id="Layer_1" xmlns="http://www.w3.org/2000/svg" xmlns:xlink="http://www.w3.org/1999/xlink" x="0px" y="0px"
	 viewBox="0 0 141.75 141.47" style="enable-background:new 0 0 141.75 141.47;" xml:space="preserve">
<style type="text/css">
	
		.st0{opacity:0.88;fill:url(#SVGID_1_);stroke:url(#SVGID_00000139260148587507882980000016521317767139062928_);stroke-width:4;stroke-miterlimit:10;}
	.st1{fill:#FFFFFF;}
	
		.st2{opacity:0.88;fill:url(#SVGID_00000151523048264327492470000012519767799225831851_);stroke:url(#SVGID_00000163781330144258582800000003236652110046525867_);stroke-width:4;stroke-miterlimit:10;}
	.st3{fill:none;}
	
		.st4{opacity:0.88;fill:url(#SVGID_00000088840753719407517640000001504471681313616007_);stroke:url(#SVGID_00000036239762290866202410000011016702700295991692_);stroke-width:4;stroke-miterlimit:10;}
	
		.st5{opacity:0.88;fill:url(#SVGID_00000068642364463770230990000008620271723022404258_);stroke:url(#SVGID_00000080927455858994727060000011692746553031740348_);stroke-width:4;stroke-miterlimit:10;}
	
		.st6{opacity:0.88;fill:url(#SVGID_00000004522667578101282240000002289503773095239338_);stroke:url(#SVGID_00000012453655199385391910000010481050794378354071_);stroke-width:4;stroke-miterlimit:10;}
	
		.st7{opacity:0.88;fill:url(#SVGID_00000063617177843605015630000010357197975015615395_);stroke:url(#SVGID_00000037673812583076392660000004125634840814394788_);stroke-width:4;stroke-miterlimit:10;}
	
		.st8{opacity:0.88;fill:url(#SVGID_00000132085334098451547770000007123246340778180257_);stroke:url(#SVGID_00000026883227523883801020000007225127397988643745_);stroke-width:4;stroke-miterlimit:10;}
	
		.st9{opacity:0.88;fill:url(#SVGID_00000003082307603934312920000015709143078770952862_);stroke:url(#SVGID_00000178899495492304791890000003421985605796879239_);stroke-width:4;stroke-miterlimit:10;}
</style>
<g>
	<g>
		<g>
			<path class="st1" d="M107.99,18.03c0-0.17-0.02-0.34-0.05-0.51c-0.06-0.28-0.12-0.56-0.17-0.83c-0.16-0.8-0.33-1.63-0.56-2.42
				c-1.17-4.11-3.58-7.65-6.96-10.24c-3.39-2.6-7.42-3.97-11.66-3.98C75.39,0.01,63.63,0,52.65,0C40.84,0,29.96,0.01,19.38,0.04
				C14.27,0.05,9.43,2.08,5.76,5.75c-3.67,3.67-5.7,8.51-5.71,13.62c-0.06,22.42-0.06,45.74,0,69.32c0.01,4.66,1.76,9.17,4.93,12.71
				c3.16,3.53,7.45,5.81,12.1,6.41c0.23,0.03,0.43,0.09,0.61,0.15c0.04,0.01,0.08,0.02,0.11,0.04h40.08c1.43,0,2.58-1.2,2.5-2.63
				c-0.02-0.34-0.03-0.67-0.03-1c-0.01-1.39-1.12-2.51-2.51-2.51h0c-7.17,0-14.34,0-21.51,0c-5.35,0-10.7,0-16.05,0
				c-8.31,0-14.12-5.83-14.12-14.16c0-12.46,0-24.91,0-37.37l0-15.19v-1.27v-0.7h0.7h94.3h0.7v0.7v1.22l0,16.5l0,8.27
				c0,1.4,1.15,2.52,2.55,2.51c0.11,0,0.21,0,0.32,0c0.25,0,0.49,0,0.73,0.01c1.4,0.03,2.54-1.11,2.54-2.51V18.03z M40.13,26.89
				H6.84H6.11l0.03-0.73c0.05-1.08,0.03-2.18,0.01-3.24c-0.05-2.37-0.1-4.82,0.63-7.24c1.67-5.53,6.78-9.35,12.72-9.52
				c0.82-0.02,1.65-0.03,2.55-0.03c1,0,2.06,0.01,3.24,0.04c0.52,0.01,1.23,0.28,1.6,0.77c4.13,5.56,8.31,11.23,12.35,16.71
				l1.28,1.74c0.09,0.13,0.14,0.25,0.18,0.36c0.02,0.04,0.04,0.1,0.06,0.16l0.41,0.97H40.13z M72.62,26.95h-1.15l-4.36,0l-4.36,0
				c-4.03,0-8.06,0-12.09,0.01h0l-0.01,0c-0.69,0-1.41-0.11-2-0.92c-3.31-4.53-6.7-9.11-9.98-13.55c-1.13-1.53-2.26-3.05-3.38-4.58
				c-0.09-0.12-0.16-0.25-0.24-0.39C35,7.45,34.96,7.38,34.91,7.29l-0.55-0.94l1.09-0.11c0.11-0.01,0.21-0.02,0.31-0.04
				c0.21-0.03,0.42-0.05,0.63-0.05l1.97,0c2.26,0,4.52,0,6.78,0c4.93,0,8.72,0.01,12.3,0.02c0.61,0,1.42,0.28,1.81,0.81
				c3.83,5.13,7.57,10.2,11.52,15.57l2.42,3.28L74,26.95H72.62z M101.32,26.86c-0.17,0.01-0.32,0.03-0.45,0.04
				c-0.26,0.02-0.48,0.05-0.71,0.05l-2.04,0c-1.8,0-3.6,0-5.4,0c-3.94,0-6.98-0.01-9.85-0.02c-0.6,0-1.41-0.28-1.81-0.81
				c-3.9-5.23-7.83-10.56-11.63-15.73l-1.87-2.54c-0.08-0.1-0.13-0.21-0.21-0.35c-0.04-0.08-0.1-0.17-0.17-0.3l-0.61-1.05h1.22h1.11
				h0.07c1.93,0,3.85,0,5.78,0c1.93,0,3.85,0,5.78,0c2.93,0,5.33,0.01,7.58,0.02c6.82,0.04,12.34,4.56,13.42,11
				c0.34,2.03,0.36,4.13,0.38,6.17c0.01,0.92,0.02,1.87,0.06,2.8l0.03,0.67L101.32,26.86z"/>
		</g>
		<g>
			<path class="st1" d="M42.24,47.19c-1.74,0-2.91,1.42-2.91,3.53c0,3.92,0,7.85,0,11.77l0,4.99l0,5c0,3.89,0,7.91,0,11.87
				c0,2.05,1.18,3.43,2.94,3.43c0.64,0,1.33-0.2,1.99-0.57c1.4-0.79,2.81-1.61,4.17-2.4c0.49-0.28,0.97-0.56,1.46-0.84
				c1.67-0.97,3.35-1.93,5.02-2.9c6.01-3.47,12.23-7.05,18.32-10.61c0.78-0.45,1.45-1.12,1.81-1.77c0.8-1.48,0.16-3.06-1.69-4.13
				c-9.41-5.44-19.16-11.07-28.99-16.74C43.64,47.4,42.91,47.19,42.24,47.19L42.24,47.19z M45.52,78.16V56.8v-1.21l1.05,0.61
				l18.49,10.68l1.05,0.61l-1.05,0.61L46.57,78.77l-1.05,0.61V78.16z"/>
		</g>
	</g>
	<path class="st1" d="M140.44,108.22c-0.4,2.04-0.67,4.12-1.21,6.12c-4.46,16.68-19.54,27.75-36.86,27.1
		c-17.39-0.66-32.36-14.45-34.36-31.69c-2.23-19.14,10.01-36.19,28.85-40.18c19.87-4.21,39.97,9.64,43.08,29.67
		c0.15,0.99,0.33,1.97,0.5,2.95C140.44,104.21,140.44,106.22,140.44,108.22z M134.84,104.47c-0.62-17.46-14.8-30.65-32.26-30
		c-16.75,0.62-29.92,15.11-29.27,32.17c0.63,16.38,15.11,29.85,31.45,29.24C121.95,135.25,135.44,121.17,134.84,104.47z"/>
	<g>
		<path class="st1" d="M109.37,111.44h7.47v7.05H92.49v-7.05h7.81V96.39c-2.97,1.31-5.29,2.09-6.96,2.32v-7.12
			c4.5-0.97,7.55-2.72,9.16-5.24h6.86V111.44z"/>
	</g>
</g>
</svg>
